<svg xmlns="http://www.w3.org/2000/svg" width="116" height="25" fill="none"><path fill="#2E80ED" d="M12.059.705c6.655 0 12.057 5.403 12.057 12.058v12.058H12.06C5.404 24.821 0 19.418 0 12.763S5.404.705 12.059.705Zm-.001 3c-4.928 0-8.937 4.01-8.937 8.937a8.91 8.91 0 0 0 2.621 6.317L7.55 17.15a6.359 6.359 0 0 1-1.871-4.509 6.386 6.386 0 0 1 6.379-6.378V6.26v.003a6.386 6.386 0 0 1 6.38 6.378v9.177h2.557v-9.177c0-4.773-3.762-8.684-8.476-8.923l-.46-.012-.001-.001Zm2.712 6.227a3.837 3.837 0 0 0-5.42 0 3.837 3.837 0 0 0 0 5.42l1.808-1.808a1.276 1.276 0 0 1 0-1.803 1.276 1.276 0 0 1 1.803 0l1.809-1.809Zm89.985 11.922V3.688h10.64v3.27h-7.007v4.075h6.877v3.166h-6.877v4.385h7.059v3.27h-10.692Zm-16.295 0v-.389l8.253-13.754a8.26 8.26 0 0 1 .597-.83h-8.357V3.687h14.144v.39l-8.253 13.754a8.276 8.276 0 0 1-.597.83h8.85v3.192H88.46Zm-18.087 0 7.422-18.166h3.14l7.396 18.166h-3.945l-1.245-3.451h-7.578l-1.246 3.451h-3.944Zm6.384-6.591h5.19l-1.946-4.957a14.787 14.787 0 0 1-.65-2.076c-.18.7-.388 1.427-.648 2.076l-1.946 4.957Zm-27.631 6.591V3.688h4.516l3.763 8.02c1.323 2.802 1.765 3.97 2.024 4.852.234-.882.675-2.05 1.998-4.853l3.79-8.019h4.36v18.166H66.02V14.51c0-2.465.078-3.685.26-5.268l-6.047 12.612h-1.765L52.422 9.242c.182 1.583.26 2.803.26 5.268v7.344h-3.556Zm-18.77 0 7.422-18.166h3.14l7.396 18.166H44.37l-1.246-3.451h-7.578L34.3 21.854h-3.944Zm6.384-6.591h5.19l-1.946-4.957a14.787 14.787 0 0 1-.65-2.076c-.18.7-.388 1.427-.648 2.076l-1.946 4.957Z"/></svg>